<?xml version="1.0" standalone="no"?>
<!DOCTYPE svg PUBLIC "-//W3C//DTD SVG 20010904//EN"
 "http://www.w3.org/TR/2001/REC-SVG-20010904/DTD/svg10.dtd">
<svg version="1.0" xmlns="http://www.w3.org/2000/svg"
 width="700.000000pt" height="700.000000pt" viewBox="0 0 700.000000 700.000000"
 preserveAspectRatio="xMidYMid meet">
<metadata>
Created by potrace 1.14, written by Peter Selinger 2001-2017
</metadata>
<g transform="translate(0.000000,700.000000) scale(0.100000,-0.100000)"
fill="#000000" stroke="none">
<path d="M2096 5913 c-1 -1 -58 -5 -126 -8 -122 -5 -200 -11 -250 -21 -14 -3
-43 -7 -65 -9 -22 -2 -53 -6 -70 -9 -218 -40 -265 -51 -265 -58 0 -5 -5 -6
-10 -3 -9 5 -139 -25 -180 -42 -8 -3 -26 -8 -40 -10 -13 -2 -30 -9 -37 -15 -7
-6 -13 -8 -13 -5 0 9 -252 -83 -370 -135 -95 -42 -255 -122 -261 -131 -3 -5
-8 -7 -10 -6 -10 7 -138 -74 -132 -83 3 -6 1 -8 -5 -4 -11 6 -64 -21 -118 -61
-17 -13 -36 -23 -42 -23 -7 0 -12 -4 -12 -9 0 -5 -8 -12 -19 -16 -10 -3 -30
-16 -44 -29 l-26 -24 0 -408 c0 -298 4 -413 12 -423 9 -11 9 -13 0 -8 -17 10
-16 -332 0 -352 9 -11 9 -13 0 -8 -9 6 -12 -233 -12 -1042 l1 -1049 81 29 c45
16 81 33 80 39 -2 5 3 7 10 4 11 -4 140 40 222 75 11 5 40 16 65 26 116 44
126 53 97 84 -9 11 -9 13 1 7 8 -5 12 0 12 14 0 14 -4 19 -13 14 -9 -6 -9 -4
-1 7 6 8 14 50 18 94 4 44 10 98 13 120 4 22 7 52 7 68 1 15 4 27 7 27 6 0 23
58 34 111 17 83 192 436 234 469 3 3 28 33 55 68 69 91 190 209 273 267 24 17
41 35 38 42 -2 7 2 10 10 7 7 -3 40 12 72 33 53 36 177 99 261 134 17 8 32 16
32 19 0 3 14 6 31 7 17 1 36 6 43 11 6 5 28 12 49 16 21 4 36 10 33 14 -2 4
12 8 32 9 21 0 46 3 57 6 11 3 28 6 38 6 11 1 15 6 11 12 -5 8 -1 8 13 0 11
-6 23 -8 26 -5 8 9 77 15 192 17 55 2 106 7 114 11 10 7 12 5 6 -4 -6 -9 2
-11 34 -8 22 2 41 1 41 -3 0 -3 10 -6 23 -6 24 0 71 -7 157 -25 64 -13 59 -12
130 -33 30 -10 63 -17 73 -18 9 -1 17 -4 17 -8 0 -4 16 -13 34 -19 19 -6 62
-24 96 -41 33 -16 65 -29 70 -29 6 0 10 -3 10 -8 0 -4 15 -14 33 -22 17 -7 41
-22 51 -32 11 -10 26 -18 33 -18 7 0 13 -4 13 -10 0 -5 4 -10 10 -10 5 0 18
-6 27 -14 98 -80 132 -104 138 -98 3 4 5 2 3 -3 -4 -14 108 -125 118 -117 4 4
4 2 1 -4 -4 -6 2 -19 12 -29 19 -16 26 -14 158 35 76 29 152 58 168 65 17 7
46 18 65 25 19 7 49 19 65 26 17 7 64 24 105 39 41 14 80 31 87 37 7 6 13 7
13 3 0 -4 7 -2 15 5 8 7 15 9 15 5 0 -4 6 -2 13 4 8 6 17 8 20 4 4 -3 7 -1 7
6 0 7 4 10 8 7 5 -3 21 2 36 10 16 7 35 14 42 14 8 0 14 4 14 8 0 4 8 8 18 9
9 1 58 18 107 38 50 20 110 43 135 52 25 8 56 20 70 26 14 5 30 11 35 12 6 2
51 19 100 38 50 19 151 58 225 86 74 29 144 56 155 61 11 5 37 14 58 20 20 6
35 16 32 21 -4 5 1 6 10 3 9 -4 26 -2 38 4 19 9 48 20 67 27 3 1 16 6 30 12
14 5 48 18 77 28 29 10 50 22 47 27 -3 4 3 5 12 1 14 -5 16 -3 11 11 -4 10 -7
20 -7 22 0 3 -6 2 -12 -2 -7 -4 -10 -4 -6 1 4 4 -3 26 -16 49 -49 87 -71 121
-78 124 -4 2 -8 10 -8 18 0 8 -4 14 -9 14 -5 0 -11 8 -15 18 -11 33 -213 302
-290 388 -143 156 -200 213 -209 207 -5 -3 -7 -2 -4 4 4 6 -28 41 -69 79 -88
80 -95 85 -108 77 -5 -3 -6 -1 -3 5 9 13 -51 64 -65 56 -7 -4 -8 -2 -4 4 6 10
-181 158 -269 212 -22 13 -41 28 -43 32 -2 4 -8 8 -14 8 -5 0 -24 11 -42 25
-18 14 -36 22 -39 18 -4 -3 -7 -2 -7 4 0 6 -15 18 -32 27 -18 9 -51 27 -73 41
-100 61 -259 134 -271 124 -9 -7 -11 -5 -10 8 0 10 -3 18 -9 18 -5 0 -36 13
-69 28 -32 15 -62 27 -65 27 -4 0 -27 10 -51 21 -24 12 -54 22 -66 23 -12 0
-20 3 -18 5 6 7 -282 100 -356 115 -14 3 -53 12 -87 20 -34 9 -77 18 -95 21
-18 4 -53 11 -77 16 -24 5 -65 12 -90 15 -45 5 -76 10 -116 18 -11 2 -65 7
-120 11 -55 4 -102 9 -104 11 -2 2 -11 -2 -19 -9 -9 -7 -13 -7 -9 -1 4 8 -16
12 -66 13 -153 5 -219 6 -221 4z m474 -77 c0 -2 -8 -10 -17 -17 -16 -13 -17
-12 -4 4 13 16 21 21 21 13z m-987 -111 c-3 -9 -8 -14 -10 -11 -3 3 -2 9 2 15
9 16 15 13 8 -4z m278 -18 c-10 -9 -11 -8 -5 6 3 10 9 15 12 12 3 -3 0 -11 -7
-18z m606 8 c0 -8 -4 -12 -9 -9 -5 3 -6 10 -3 15 9 13 12 11 12 -6z m593 11
c0 -2 -8 -10 -17 -17 -16 -13 -17 -12 -4 4 13 16 21 21 21 13z m-1295 -114
c-3 -3 -11 0 -18 7 -9 10 -8 11 6 5 10 -3 15 -9 12 -12z m-580 -41 c3 -5 2
-12 -3 -15 -5 -3 -9 1 -9 9 0 17 3 19 12 6z m1599 -17 c3 -8 2 -12 -4 -9 -6 3
-10 10 -10 16 0 14 7 11 14 -7z m-209 -14 c-3 -5 -12 -10 -18 -10 -7 0 -6 4 3
10 19 12 23 12 15 0z m-485 -40 c0 -5 -2 -10 -4 -10 -3 0 -8 5 -11 10 -3 6 -1
10 4 10 6 0 11 -4 11 -10z m-1264 -106 c1 -9 0 -13 -4 -10 -3 4 -7 14 -8 22
-1 9 0 13 4 10 3 -4 7 -14 8 -22z m624 22 c0 -2 -8 -10 -17 -17 -16 -13 -17
-12 -4 4 13 16 21 21 21 13z m296 -11 c-1 -8 -5 -17 -8 -21 -5 -4 -4 16 1 34
3 9 9 -1 7 -13z m1562 -10 c-3 -3 -9 2 -12 12 -6 14 -5 15 5 6 7 -7 10 -15 7
-18z m-607 -8 c-10 -9 -11 -8 -5 6 3 10 9 15 12 12 3 -3 0 -11 -7 -18z m353
-85 c3 -5 -1 -9 -9 -9 -8 0 -12 4 -9 9 3 4 7 8 9 8 2 0 6 -4 9 -8z m-1911 -57
c-3 -9 -8 -14 -10 -11 -3 3 -2 9 2 15 9 16 15 13 8 -4z m285 -10 c-3 -3 -9 2
-12 12 -6 14 -5 15 5 6 7 -7 10 -15 7 -18z m2520 0 c-3 -3 -9 2 -12 12 -6 14
-5 15 5 6 7 -7 10 -15 7 -18z m-1607 -8 c-10 -9 -11 -8 -5 6 3 10 9 15 12 12
3 -3 0 -11 -7 -18z m-1851 -41 c0 -2 -7 -7 -16 -10 -8 -3 -12 -2 -9 4 6 10 25
14 25 6z m806 -88 c3 -4 -1 -5 -10 -4 -8 1 -18 5 -22 8 -3 4 1 5 10 4 8 -1 18
-5 22 -8z m-591 -7 c3 -5 2 -12 -3 -15 -5 -3 -9 1 -9 9 0 17 3 19 12 6z m1162
-6 c0 -8 -4 -12 -9 -9 -5 3 -6 10 -3 15 9 13 12 11 12 -6z m1360 0 c0 -8 -4
-12 -9 -9 -5 3 -6 10 -3 15 9 13 12 11 12 -6z m-3086 -18 c-10 -9 -11 -8 -5 6
3 10 9 15 12 12 3 -3 0 -11 -7 -18z m2526 8 c0 -8 -4 -12 -9 -9 -5 3 -6 10 -3
15 9 13 12 11 12 -6z m1228 6 c-9 -8 -36 -10 -30 -2 2 4 11 8 20 8 8 0 13 -3
10 -6z m401 -3 c3 -4 -1 -5 -10 -4 -8 1 -18 5 -22 8 -3 4 1 5 10 4 8 -1 18 -5
22 -8z m-436 -54 c0 -8 -19 -13 -24 -6 -3 5 1 9 9 9 8 0 15 -2 15 -3z m-326
-82 c3 -5 -1 -9 -9 -9 -8 0 -12 4 -9 9 3 4 7 8 9 8 2 0 6 -4 9 -8z m-2504 -6
c0 -2 -8 -10 -17 -17 -16 -13 -17 -12 -4 4 13 16 21 21 21 13z m514 -26 c-6
-6 -10 -3 -10 10 0 13 4 16 10 10 7 -7 7 -13 0 -20z m1600 0 c-6 -6 -10 -3
-10 10 0 13 4 16 10 10 7 -7 7 -13 0 -20z m603 15 c0 -8 -4 -12 -9 -9 -5 3 -6
10 -3 15 9 13 12 11 12 -6z m-1003 -11 c3 -8 2 -12 -4 -9 -6 3 -10 10 -10 16
0 14 7 11 14 -7z m1640 0 c3 -8 2 -12 -4 -9 -6 3 -10 10 -10 16 0 14 7 11 14
-7z m-3900 -12 c3 -5 -1 -9 -9 -9 -8 0 -12 4 -9 9 3 4 7 8 9 8 2 0 6 -4 9 -8z
m3691 -1 c-9 -8 -36 -10 -30 -2 2 4 11 8 20 8 8 0 13 -3 10 -6z m-3387 -146
c-3 -3 -9 2 -12 12 -6 14 -5 15 5 6 7 -7 10 -15 7 -18z m-678 5 c0 -5 -5 -10
-11 -10 -5 0 -7 5 -4 10 3 6 8 10 11 10 2 0 4 -4 4 -10z m1680 6 c0 -3 -4 -8
-10 -11 -5 -3 -10 -1 -10 4 0 6 5 11 10 11 6 0 10 -2 10 -4z m674 -12 c3 -8 2
-12 -4 -9 -6 3 -10 10 -10 16 0 14 7 11 14 -7z m-1174 -18 c-7 -7 -13 -7 -20
0 -6 6 -3 10 10 10 13 0 16 -4 10 -10z m1594 -42 c3 -8 2 -12 -4 -9 -6 3 -10
10 -10 16 0 14 7 11 14 -7z m810 8 c2 -4 -4 -8 -14 -8 -10 0 -16 4 -14 8 3 4
9 8 14 8 5 0 11 -4 14 -8z m-634 -78 c0 -8 -19 -13 -24 -6 -3 5 1 9 9 9 8 0
15 -2 15 -3z m-2876 -30 c3 -8 2 -12 -4 -9 -6 3 -10 10 -10 16 0 14 7 11 14
-7z m1241 7 c3 -5 2 -12 -3 -15 -5 -3 -9 1 -9 9 0 17 3 19 12 6z m956 -14
c-10 -9 -11 -8 -5 6 3 10 9 15 12 12 3 -3 0 -11 -7 -18z m1799 19 c0 -2 -8
-10 -17 -17 -16 -13 -17 -12 -4 4 13 16 21 21 21 13z m407 -11 c0 -8 -4 -12
-9 -9 -5 3 -6 10 -3 15 9 13 12 11 12 -6z m-2012 -15 c3 -6 -1 -7 -9 -4 -18 7
-21 14 -7 14 6 0 13 -4 16 -10z m795 6 c0 -2 -7 -7 -16 -10 -8 -3 -12 -2 -9 4
6 10 25 14 25 6z m645 -6 c3 -6 -1 -7 -9 -4 -18 7 -21 14 -7 14 6 0 13 -4 16
-10z m-3525 -84 c-7 -7 -13 -7 -20 0 -6 6 -3 10 10 10 13 0 16 -4 10 -10z
m1610 10 c0 -2 -8 -10 -17 -17 -16 -13 -17 -12 -4 4 13 16 21 21 21 13z m1771
-63 c13 -16 12 -17 -3 -4 -17 13 -22 21 -14 21 2 0 10 -8 17 -17z m1250 -10
c13 -16 12 -17 -3 -4 -17 13 -22 21 -14 21 2 0 10 -8 17 -17z m-796 -133 c3
-5 1 -10 -4 -10 -6 0 -11 5 -11 10 0 6 2 10 4 10 3 0 8 -4 11 -10z m-3537 -25
c-3 -3 -9 2 -12 12 -6 14 -5 15 5 6 7 -7 10 -15 7 -18z m1999 10 c0 -8 -4 -12
-9 -9 -5 3 -6 10 -3 15 9 13 12 11 12 -6z m956 0 c-3 -9 -8 -14 -10 -11 -3 3
-2 9 2 15 9 16 15 13 8 -4z m-3638 -4 c3 -5 2 -12 -3 -15 -5 -3 -9 1 -9 9 0
17 3 19 12 6z m1402 -6 c0 -8 -4 -12 -9 -9 -5 3 -6 10 -3 15 9 13 12 11 12 -6z
m957 -1 c3 -8 2 -12 -4 -9 -6 3 -10 10 -10 16 0 14 7 11 14 -7z m-2128 -16 c3
-4 -1 -5 -10 -4 -8 1 -18 5 -22 8 -3 4 1 5 10 4 8 -1 18 -5 22 -8z m959 3 c-9
-8 -36 -10 -30 -2 2 4 11 8 20 8 8 0 13 -3 10 -6z m3349 -87 c3 -8 2 -12 -4
-9 -6 3 -10 10 -10 16 0 14 7 11 14 -7z m-2619 -43 c3 -5 2 -12 -3 -15 -5 -3
-9 1 -9 9 0 17 3 19 12 6z m1246 -8 c13 -16 12 -17 -3 -4 -17 13 -22 21 -14
21 2 0 10 -8 17 -17z m-1850 -16 c-10 -9 -11 -8 -5 6 3 10 9 15 12 12 3 -3 0
-11 -7 -18z m2234 14 c-9 -8 -36 -10 -30 -2 2 4 11 8 20 8 8 0 13 -3 10 -6z
m28 -56 c-3 -9 -8 -14 -10 -11 -3 3 -2 9 2 15 9 16 15 13 8 -4z m967 11 c0 -2
-8 -10 -17 -17 -16 -13 -17 -12 -4 4 13 16 21 21 21 13z m320 -52 c0 -8 -19
-13 -24 -6 -3 5 1 9 9 9 8 0 15 -2 15 -3z m-4004 -30 c1 -9 0 -13 -4 -10 -3 4
-7 14 -8 22 -1 9 0 13 4 10 3 -4 7 -14 8 -22z m-62 -44 c-6 -6 -10 -3 -10 10
0 13 4 16 10 10 7 -7 7 -13 0 -20z m3044 5 c-3 -3 -9 2 -12 12 -6 14 -5 15 5
6 7 -7 10 -15 7 -18z m-2283 -3 c-3 -3 -11 0 -18 7 -9 10 -8 11 6 5 10 -3 15
-9 12 -12z m1085 14 c0 -3 -4 -8 -10 -11 -5 -3 -10 -1 -10 4 0 6 5 11 10 11 6
0 10 -2 10 -4z m410 0 c0 -2 -8 -10 -17 -17 -16 -13 -17 -12 -4 4 13 16 21 21
21 13z m-2670 -20 c0 -2 -7 -7 -16 -10 -8 -3 -12 -2 -9 4 6 10 25 14 25 6z
m1610 -2 c0 -8 -19 -13 -24 -6 -3 5 1 9 9 9 8 0 15 -2 15 -3z m1270 2 c0 -3
-4 -8 -10 -11 -5 -3 -10 -1 -10 4 0 6 5 11 10 11 6 0 10 -2 10 -4z m-2235 -46
c3 -6 -1 -7 -9 -4 -18 7 -21 14 -7 14 6 0 13 -4 16 -10z m-508 -95 c0 -8 -4
-12 -9 -9 -5 3 -6 10 -3 15 9 13 12 11 12 -6z m1323 11 c0 -2 -8 -10 -17 -17
-16 -13 -17 -12 -4 4 13 16 21 21 21 13z m1555 -5 c3 -5 2 -12 -3 -15 -5 -3
-9 1 -9 9 0 17 3 19 12 6z m1326 -8 c13 -16 12 -17 -3 -4 -17 13 -22 21 -14
21 2 0 10 -8 17 -17z m-4490 -10 c13 -17 13 -17 -6 -3 -11 8 -22 16 -24 17 -2
2 0 3 6 3 6 0 17 -8 24 -17z m3715 5 c3 -4 -1 -5 -10 -4 -8 1 -18 5 -22 8 -3
4 1 5 10 4 8 -1 18 -5 22 -8z m-2610 -44 c1 -9 0 -13 -4 -10 -3 4 -7 14 -8 22
-1 9 0 13 4 10 3 -4 7 -14 8 -22z m2568 -12 c2 -4 -4 -8 -14 -8 -10 0 -16 4
-14 8 3 4 9 8 14 8 5 0 11 -4 14 -8z m-3524 -82 c0 -5 -5 -10 -11 -10 -5 0 -7
5 -4 10 3 6 8 10 11 10 2 0 4 -4 4 -10z m216 -20 c0 -12 -4 -16 -9 -11 -5 5
-6 14 -3 20 10 15 12 14 12 -9z m395 -13 c-10 -9 -11 -8 -5 6 3 10 9 15 12 12
3 -3 0 -11 -7 -18z m-921 -81 c0 -2 -8 -10 -17 -17 -16 -13 -17 -12 -4 4 13
16 21 21 21 13z m35 -65 c-9 -8 -36 -10 -30 -2 2 4 11 8 20 8 8 0 13 -3 10 -6z
m366 -8 c13 -16 12 -17 -3 -4 -10 7 -18 15 -18 17 0 8 8 3 21 -13z m2726 2 c0
-8 -4 -12 -9 -9 -5 3 -6 10 -3 15 9 13 12 11 12 -6z m-2502 -143 c-3 -3 -11 0
-18 7 -9 10 -8 11 6 5 10 -3 15 -9 12 -12z m2731 6 c3 -4 -1 -5 -10 -4 -8 1
-18 5 -22 8 -3 4 1 5 10 4 8 -1 18 -5 22 -8z m-3435 -31 c-10 -9 -11 -8 -5 6
3 10 9 15 12 12 3 -3 0 -11 -7 -18z m7 -632 c-3 -3 -9 2 -12 12 -6 14 -5 15 5
6 7 -7 10 -15 7 -18z m62 -571 c0 -8 -19 -13 -24 -6 -3 5 1 9 9 9 8 0 15 -2
15 -3z"/>
<path d="M2070 3059 c-25 -4 -53 -5 -62 -3 -10 1 -18 -1 -18 -5 0 -5 -19 -12
-42 -16 -51 -10 -44 -7 -92 -28 -21 -9 -42 -17 -46 -17 -9 0 -71 -32 -80 -40
-3 -3 -17 -11 -32 -19 -15 -8 -36 -21 -45 -30 -10 -9 -35 -29 -56 -44 -51 -38
-77 -66 -129 -134 -67 -88 -126 -193 -143 -255 -2 -5 -4 -10 -5 -13 -1 -3 -4
-9 -5 -15 -1 -5 -3 -11 -5 -12 -1 -2 -3 -12 -5 -23 -2 -11 -7 -31 -11 -45 -12
-39 -14 -353 -2 -368 6 -7 8 -15 5 -19 -4 -3 -3 -11 2 -17 4 -6 14 -33 21 -61
7 -27 20 -63 28 -80 38 -76 51 -100 86 -155 41 -63 201 -220 225 -220 6 0 14
-6 18 -13 16 -27 232 -123 298 -132 6 -1 12 -3 15 -4 19 -9 260 -14 310 -7 66
10 168 39 200 56 14 7 27 13 30 13 8 -1 83 38 113 59 15 11 27 16 27 12 0 -4
8 3 19 14 10 12 21 22 25 22 3 0 14 8 24 18 10 9 29 26 43 38 70 60 149 169
198 274 19 41 36 81 37 88 1 8 6 21 10 30 4 9 8 24 10 32 2 8 6 31 10 50 4 19
8 43 8 52 1 9 3 19 6 21 3 3 4 52 4 110 -3 235 -88 446 -246 614 -60 64 -174
153 -197 153 -6 0 -11 5 -11 10 0 6 -6 10 -14 10 -8 0 -21 6 -28 13 -7 6 -20
13 -28 15 -8 2 -28 10 -45 17 -100 46 -303 71 -425 54z"/>
<path d="M5785 2970 c-11 -4 -33 -14 -50 -21 -35 -14 -32 -13 -67 -23 -16 -5
-25 -12 -22 -17 3 -5 -2 -6 -11 -3 -8 4 -22 1 -30 -6 -8 -7 -15 -9 -15 -5 0 4
-6 3 -12 -2 -7 -6 -26 -13 -41 -17 -15 -4 -26 -10 -23 -14 2 -4 -9 -8 -26 -8
-17 -1 -34 -7 -38 -13 -4 -7 -10 -12 -14 -11 -3 1 -20 -2 -37 -5 -20 -5 -29
-12 -25 -20 3 -10 -2 -12 -17 -9 -21 4 -38 -1 -112 -31 -16 -7 -65 -25 -107
-41 -42 -15 -74 -32 -72 -36 3 -4 -1 -6 -8 -3 -18 7 -190 -60 -180 -70 4 -4 2
-5 -5 -1 -7 3 -40 -5 -74 -19 -34 -14 -68 -25 -76 -25 -7 0 -13 -4 -13 -10 0
-5 -3 -9 -7 -8 -18 4 -92 -26 -86 -35 3 -6 1 -7 -5 -3 -6 3 -23 1 -39 -5 -15
-7 -32 -13 -38 -15 -5 -1 -48 -16 -94 -33 -46 -17 -86 -31 -88 -31 -2 0 -1 -4
2 -10 3 -5 0 -7 -8 -4 -7 2 -27 -1 -43 -7 -16 -7 -31 -13 -34 -14 -3 -1 -18
-7 -33 -13 -16 -7 -33 -12 -38 -12 -6 0 -8 -4 -5 -9 4 -5 -2 -7 -12 -4 -11 2
-26 -2 -34 -11 -9 -8 -18 -13 -21 -10 -2 3 -20 -2 -38 -10 -30 -13 -165 -65
-266 -101 -18 -6 -36 -15 -40 -19 -12 -11 -11 -89 1 -105 8 -11 8 -13 -1 -7
-10 5 -13 -5 -14 -41 0 -26 -2 -57 -4 -68 -2 -11 -6 -38 -10 -60 -5 -42 -11
-71 -21 -117 -3 -15 -6 -31 -6 -35 0 -5 -4 -14 -10 -20 -6 -7 -8 -13 -4 -13
11 0 -72 -216 -117 -302 -25 -49 -44 -88 -42 -88 2 0 -7 -12 -20 -26 -14 -15
-25 -31 -25 -35 0 -5 -6 -17 -14 -26 -8 -10 -37 -47 -65 -83 -103 -131 -231
-250 -367 -341 -46 -30 -81 -59 -77 -64 5 -4 2 -5 -4 -1 -7 4 -32 -4 -55 -18
-36 -21 -111 -54 -203 -91 -25 -10 -30 -12 -85 -27 -25 -7 -48 -16 -51 -21 -3
-5 -9 -8 -13 -8 -32 5 -56 -1 -50 -11 4 -7 3 -8 -5 -4 -10 6 -70 0 -168 -19
-10 -2 -44 -4 -77 -4 -51 -1 -57 -3 -52 -18 5 -16 5 -16 -6 -3 -16 20 -69 24
-80 8 -4 -8 -8 -8 -8 -2 0 6 -21 12 -47 13 -104 5 -188 17 -273 38 -14 4 -37
7 -52 7 -14 1 -24 3 -22 6 4 4 -61 28 -181 67 -29 10 -205 102 -237 124 -14
11 -29 19 -33 19 -3 0 -12 6 -20 12 -18 18 -62 49 -71 51 -4 1 -21 16 -39 32
-17 17 -58 55 -91 85 -32 30 -71 70 -87 89 l-27 33 -80 -28 c-68 -24 -77 -30
-67 -44 10 -13 10 -13 -4 -3 -13 10 -25 10 -62 -3 -26 -9 -47 -20 -47 -26 0
-5 -4 -7 -9 -4 -8 5 -66 -14 -101 -33 -9 -5 -30 -12 -48 -16 -18 -3 -32 -11
-32 -16 0 -6 -4 -8 -8 -5 -4 2 -35 -6 -67 -20 -33 -13 -66 -24 -72 -24 -7 0
-13 -4 -13 -8 0 -5 -6 -9 -14 -9 -8 0 -49 -13 -92 -30 -44 -17 -113 -43 -154
-59 l-75 -29 -2 -387 -2 -387 740 0 c568 0 738 3 732 12 -5 9 -3 9 8 0 21 -17
717 -17 738 0 11 9 13 9 8 0 -6 -9 203 -12 893 -11 684 0 898 2 893 11 -5 9
-3 9 8 0 11 -9 163 -12 605 -12 l591 0 22 29 c11 16 21 33 21 39 0 5 4 11 8
13 12 4 122 178 165 260 19 35 42 76 51 90 9 13 13 28 9 31 -3 4 -1 7 6 7 8 0
11 6 7 16 -3 8 -2 13 3 10 4 -3 18 18 30 47 12 29 27 59 32 67 5 8 12 22 15
30 3 8 26 64 51 123 24 60 42 115 39 123 -3 8 -2 13 2 10 5 -3 19 28 31 67 13
40 27 79 31 87 4 8 15 47 24 85 10 39 22 79 26 90 4 11 14 47 21 80 7 33 14
67 16 75 2 8 6 31 10 50 3 19 9 43 13 55 5 13 2 24 -9 32 -14 12 -14 12 2 7
13 -5 17 0 18 22 0 16 2 38 5 49 2 11 6 41 8 67 2 26 6 50 9 55 3 5 9 49 12
98 4 50 9 106 11 125 4 52 4 344 0 430 -11 188 -19 256 -33 279 -8 13 -10 20
-4 17 11 -7 9 42 -5 104 -3 14 -7 39 -10 55 -13 82 -30 149 -39 151 -5 1 -19
-1 -30 -6z m65 -364 c0 -3 -4 -8 -10 -11 -5 -3 -10 -1 -10 4 0 6 5 11 10 11 6
0 10 -2 10 -4z m-70 -20 c0 -2 -8 -10 -17 -17 -16 -13 -17 -12 -4 4 13 16 21
21 21 13z m-325 -206 c-3 -5 -12 -10 -18 -10 -7 0 -6 4 3 10 19 12 23 12 15 0z
m-1194 -27 c13 -16 12 -17 -3 -4 -10 7 -18 15 -18 17 0 8 8 3 21 -13z m449 13
c0 -3 -4 -8 -10 -11 -5 -3 -10 -1 -10 4 0 6 5 11 10 11 6 0 10 -2 10 -4z
m1155 -5 c3 -5 2 -12 -3 -15 -5 -3 -9 1 -9 9 0 17 3 19 12 6z m-254 -218 c13
-16 12 -17 -3 -4 -10 7 -18 15 -18 17 0 8 8 3 21 -13z m-1761 1 c0 -8 -19 -13
-24 -6 -3 5 1 9 9 9 8 0 15 -2 15 -3z m1115 -52 c-3 -3 -11 0 -18 7 -9 10 -8
11 6 5 10 -3 15 -9 12 -12z m-640 -40 c-3 -3 -11 0 -18 7 -9 10 -8 11 6 5 10
-3 15 -9 12 -12z m479 -30 c3 -5 -1 -9 -9 -9 -8 0 -12 4 -9 9 3 4 7 8 9 8 2 0
6 -4 9 -8z m-794 -38 c0 -8 -19 -13 -24 -6 -3 5 1 9 9 9 8 0 15 -2 15 -3z
m480 2 c0 -2 -7 -7 -16 -10 -8 -3 -12 -2 -9 4 6 10 25 14 25 6z m-663 -111 c0
-8 -4 -12 -9 -9 -5 3 -6 10 -3 15 9 13 12 11 12 -6z m977 -93 c3 -5 -1 -9 -9
-9 -8 0 -12 4 -9 9 3 4 7 8 9 8 2 0 6 -4 9 -8z m-469 -42 c-3 -5 -12 -10 -18
-10 -7 0 -6 4 3 10 19 12 23 12 15 0z m801 -2 c3 -4 -1 -5 -10 -4 -8 1 -18 5
-22 8 -3 4 1 5 10 4 8 -1 18 -5 22 -8z m207 -13 c-3 -9 -8 -14 -10 -11 -3 3
-2 9 2 15 9 16 15 13 8 -4z m-693 -19 c0 -2 -7 -7 -16 -10 -8 -3 -12 -2 -9 4
6 10 25 14 25 6z m-630 -80 c0 -2 -8 -10 -17 -17 -16 -13 -17 -12 -4 4 13 16
21 21 21 13z m35 -65 c-9 -8 -36 -10 -30 -2 2 4 11 8 20 8 8 0 13 -3 10 -6z
m366 -8 c13 -16 12 -17 -3 -4 -17 13 -22 21 -14 21 2 0 10 -8 17 -17z m1183
-91 c3 -5 -1 -9 -9 -9 -8 0 -12 4 -9 9 3 4 7 8 9 8 2 0 6 -4 9 -8z m-1058 -62
c0 -12 -4 -16 -9 -11 -5 5 -6 14 -3 20 10 15 12 14 12 -9z m402 -5 c-3 -3 -9
2 -12 12 -6 14 -5 15 5 6 7 -7 10 -15 7 -18z m-1007 -8 c-10 -9 -11 -8 -5 6 3
10 9 15 12 12 3 -3 0 -11 -7 -18z m1287 -152 c-3 -3 -9 2 -12 12 -6 14 -5 15
5 6 7 -7 10 -15 7 -18z m-763 6 c3 -5 2 -12 -3 -15 -5 -3 -9 1 -9 9 0 17 3 19
12 6z m675 -95 c0 -2 -8 -10 -17 -17 -16 -13 -17 -12 -4 4 13 16 21 21 21 13z
m-816 -44 c3 -5 -1 -9 -9 -9 -8 0 -12 4 -9 9 3 4 7 8 9 8 2 0 6 -4 9 -8z
m1296 -78 c0 -8 -19 -13 -24 -6 -3 5 1 9 9 9 8 0 15 -2 15 -3z m-637 -99 c-3
-9 -8 -14 -10 -11 -3 3 -2 9 2 15 9 16 15 13 8 -4z m-596 -10 c0 -8 -4 -12 -9
-9 -5 3 -6 10 -3 15 9 13 12 11 12 -6z m743 -119 c0 -2 -8 -10 -17 -17 -16
-13 -17 -12 -4 4 13 16 21 21 21 13z m-225 -25 c3 -5 2 -12 -3 -15 -5 -3 -9 1
-9 9 0 17 3 19 12 6z m440 0 c3 -5 2 -12 -3 -15 -5 -3 -9 1 -9 9 0 17 3 19 12
6z m-1395 -11 c0 -5 -2 -10 -4 -10 -3 0 -8 5 -11 10 -3 6 -1 10 4 10 6 0 11
-4 11 -10z m1634 -6 c3 -8 2 -12 -4 -9 -6 3 -10 10 -10 16 0 14 7 11 14 -7z
m-2374 -10 c0 -8 -19 -13 -24 -6 -3 5 1 9 9 9 8 0 15 -2 15 -3z m2316 -30 c1
-9 0 -13 -4 -10 -3 4 -7 14 -8 22 -1 9 0 13 4 10 3 -4 7 -14 8 -22z m-3860
-120 c1 -9 0 -13 -4 -10 -3 4 -7 14 -8 22 -1 9 0 13 4 10 3 -4 7 -14 8 -22z
m-1172 -52 c2 -4 -4 -8 -14 -8 -10 0 -16 4 -14 8 3 4 9 8 14 8 5 0 11 -4 14
-8z m951 -50 c-3 -3 -11 0 -18 7 -9 10 -8 11 6 5 10 -3 15 -9 12 -12z m1289
10 c3 -5 -1 -9 -9 -9 -8 0 -12 4 -9 9 3 4 7 8 9 8 2 0 6 -4 9 -8z m631 -10
c-3 -3 -11 0 -18 7 -9 10 -8 11 6 5 10 -3 15 -9 12 -12z m335 12 c0 -8 -19
-13 -24 -6 -3 5 1 9 9 9 8 0 15 -2 15 -3z m-3517 -59 c-3 -9 -8 -14 -10 -11
-3 3 -2 9 2 15 9 16 15 13 8 -4z m2328 -2 c13 -16 12 -17 -3 -4 -10 7 -18 15
-18 17 0 8 8 3 21 -13z m1836 2 c0 -8 -4 -12 -9 -9 -5 3 -6 10 -3 15 9 13 12
11 12 -6z m240 -10 c0 -8 -4 -12 -9 -9 -5 3 -6 10 -3 15 9 13 12 11 12 -6z
m-732 -15 c3 -6 -1 -7 -9 -4 -18 7 -21 14 -7 14 6 0 13 -4 16 -10z m-1765 -84
c-7 -7 -13 -7 -20 0 -6 6 -3 10 10 10 13 0 16 -4 10 -10z m-307 -51 c-3 -9 -8
-14 -10 -11 -3 3 -2 9 2 15 9 16 15 13 8 -4z m1264 0 c0 -8 -4 -12 -9 -9 -5 3
-6 10 -3 15 9 13 12 11 12 -6z m1980 0 c0 -8 -4 -12 -9 -9 -5 3 -6 10 -3 15 9
13 12 11 12 -6z m-1037 -5 c0 -5 -5 -10 -11 -10 -5 0 -7 5 -4 10 3 6 8 10 11
10 2 0 4 -4 4 -10z m1146 -102 c3 -4 -1 -5 -10 -4 -8 1 -18 5 -22 8 -3 4 1 5
10 4 8 -1 18 -5 22 -8z m-4651 -46 c-3 -3 -11 0 -18 7 -9 10 -8 11 6 5 10 -3
15 -9 12 -12z m1130 9 c-9 -8 -36 -10 -30 -2 2 4 11 8 20 8 8 0 13 -3 10 -6z
m805 3 c0 -8 -19 -13 -24 -6 -3 5 1 9 9 9 8 0 15 -2 15 -3z m1114 -6 c-3 -4
-9 -8 -15 -8 -5 0 -9 4 -9 8 0 5 7 9 15 9 8 0 12 -4 9 -9z m311 -6 c-3 -3 -11
0 -18 7 -9 10 -8 11 6 5 10 -3 15 -9 12 -12z m-1778 -7 c0 -8 -4 -12 -9 -9 -5
3 -6 10 -3 15 9 13 12 11 12 -6z m2159 -5 c0 -12 -4 -16 -9 -11 -5 5 -6 14 -3
20 10 15 12 14 12 -9z m744 -16 c0 -8 -19 -13 -24 -6 -3 5 1 9 9 9 8 0 15 -2
15 -3z m-2716 -42 c3 -5 -1 -9 -9 -9 -8 0 -12 4 -9 9 7 10 11 10 18 0z m1750
0 c3 -5 -1 -9 -9 -9 -8 0 -12 4 -9 9 3 4 7 8 9 8 2 0 6 -4 9 -8z"/>
</g>
</svg>
