<svg width="608" height="608" viewBox="0 0 608 608" fill="none" xmlns="http://www.w3.org/2000/svg">
<path d="M260.875 392.013C276.039 431.968 255.942 476.652 215.987 491.816C176.032 506.981 131.348 486.884 116.184 446.928C101.019 406.973 121.116 362.289 161.072 347.125C201.027 331.961 245.711 352.058 260.875 392.013Z" fill="#1D1D1D" fill-opacity="0.2"/>
<path fill-rule="evenodd" clip-rule="evenodd" d="M303.852 723.322C456.926 665.225 540.603 503.968 505.778 348.724L327.816 416.267C329.136 473.629 294.653 528.173 237.953 549.693C181.254 571.212 119.265 553.283 82.1918 509.49L-95.7705 577.032C-18.8213 716.289 150.777 781.419 303.852 723.322ZM49.2426 422.675L-128.72 490.218C-163.544 334.973 -79.8677 173.716 73.2072 115.619C226.282 57.5219 395.88 122.652 472.829 261.909L294.867 329.452C257.794 285.659 195.805 267.729 139.106 289.249C82.4061 310.768 47.9232 365.312 49.2426 422.675ZM260.875 392.013C276.039 431.968 255.942 476.652 215.987 491.816C176.032 506.981 131.348 486.884 116.184 446.928C101.019 406.973 121.116 362.289 161.072 347.125C201.027 331.961 245.711 352.058 260.875 392.013Z" fill="#1D1D1D" fill-opacity="0.2"/>
</svg>
